<svg xmlns="http://www.w3.org/2000/svg" viewBox="0 0 24 24" width="24" height="24" fill="none">
  <path d="M18 9V12C18 15.866 14.866 19 11 19H10C7.239 19 5 16.761 5 14V10C5 9.448 5.448 9 6 9C6.552 9 7 9.448 7 10V12" stroke="currentColor" stroke-width="1.5" stroke-linecap="round" stroke-linejoin="round"/>
  <path d="M7 10V6C7 5.448 7.448 5 8 5C8.552 5 9 5.448 9 6V10" stroke="currentColor" stroke-width="1.5" stroke-linecap="round" stroke-linejoin="round"/>
  <path d="M9 9V5C9 4.448 9.448 4 10 4C10.552 4 11 4.448 11 5V9" stroke="currentColor" stroke-width="1.5" stroke-linecap="round" stroke-linejoin="round"/>
  <path d="M11 9V5.5C11 4.948 11.448 4.5 12 4.5C12.552 4.5 13 4.948 13 5.5V9" stroke="currentColor" stroke-width="1.5" stroke-linecap="round" stroke-linejoin="round"/>
  <path d="M13 9V7C13 6.448 13.448 6 14 6C14.552 6 15 6.448 15 7V9" stroke="currentColor" stroke-width="1.5" stroke-linecap="round" stroke-linejoin="round"/>
  <path d="M15 10V8C15 7.448 15.448 7 16 7C16.552 7 17 7.448 17 8V9" stroke="currentColor" stroke-width="1.5" stroke-linecap="round" stroke-linejoin="round"/>
  <path d="M17 9C17 8.448 17.448 8 18 8C18.552 8 18 9 18 9" stroke="currentColor" stroke-width="1.5" stroke-linecap="round" stroke-linejoin="round"/>
</svg>
